<?xml version="1.0" encoding="utf-8"?>
<!-- Generator: Adobe Illustrator 26.5.0, SVG Export Plug-In . SVG Version: 6.00 Build 0)  -->
<svg version="1.1" id="Layer_1" xmlns="http://www.w3.org/2000/svg" xmlns:xlink="http://www.w3.org/1999/xlink" x="0px" y="0px"
	 viewBox="0 0 576 576" style="enable-background:new 0 0 576 576;" xml:space="preserve">
<style type="text/css">
	.st0{fill:#482E7F;}
	.st1{font-family:'FONTSPRINGDEMO-MatriceBlackBold';}
	.st2{font-size:304.7802px;}
</style>
<g>
	<g>
		<text transform="matrix(0.695 0 0 1 63.3328 383.7279)" class="st0 st1 st2">m</text>
		<path class="st0" d="M456.3,208.39c-24.06-18.43-64.99-26.24-102.48-22.5l0.72,57.85c20.04-1.56,41.76,2,54.6,10.28
			c12.99,8.38,20.91,21.6,20.91,35.24c0,10.57-4.19,21.78-12.82,30.13c-11.69,11.31-35.29,17.88-61.55,15.39l0.64,51.07
			c49.03,5.77,93.18-8.72,114.97-33.74c15.98-18.34,23.74-42.99,23.74-66.24C495.04,255.88,480.35,226.83,456.3,208.39z"/>
		<circle class="st0" cx="295.08" cy="162.15" r="33.74"/>
	</g>
</g>
</svg>
